<svg width="36" height="36" viewBox="0 0 36 36" fill="none" xmlns="http://www.w3.org/2000/svg">
<path d="M31.32 4.6485C30.2205 3.549 28.8975 3 27.3495 3H8.619C7.071 3 5.748 3.549 4.6485 4.6485C3.549 5.748 3 7.071 3 8.619V27.3495C3 28.8975 3.549 30.2205 4.6485 31.32C5.748 32.4195 7.071 32.9685 8.619 32.9685H12.99C13.275 32.9685 13.4895 32.958 13.6335 32.9385C13.801 32.9049 13.9523 32.8156 14.0625 32.685C14.205 32.535 14.277 32.3175 14.277 32.0325L14.2665 30.705C14.2605 29.859 14.2575 29.19 14.2575 28.695L13.8075 28.773C13.5225 28.8255 13.1625 28.848 12.726 28.842C12.271 28.8336 11.8175 28.788 11.37 28.7055C10.8936 28.6175 10.4451 28.417 10.062 28.1205C9.66074 27.8169 9.36146 27.3984 9.204 26.9205L9.009 26.4705C8.84464 26.1155 8.63816 25.7816 8.394 25.476C8.115 25.1115 7.8315 24.8655 7.545 24.735L7.41 24.6375C7.31587 24.5701 7.23024 24.4915 7.155 24.4035C7.08314 24.3218 7.02398 24.2298 6.9795 24.1305C6.9405 24.039 6.9735 23.964 7.077 23.9055C7.182 23.8455 7.3695 23.817 7.644 23.817L8.034 23.877C8.2935 23.928 8.616 24.084 8.9985 24.3435C9.38559 24.6074 9.70894 24.9543 9.945 25.359C10.245 25.8915 10.605 26.298 11.028 26.5785C11.451 26.8575 11.877 26.9985 12.306 26.9985C12.735 26.9985 13.1055 26.9655 13.419 26.901C13.7222 26.8383 14.0168 26.7396 14.2965 26.607C14.4135 25.737 14.7315 25.065 15.252 24.597C14.5776 24.5309 13.9091 24.4135 13.2525 24.246C12.6117 24.07 11.9954 23.8145 11.418 23.4855C10.8139 23.1566 10.2803 22.7122 9.8475 22.1775C9.432 21.657 9.09 20.9745 8.823 20.13C8.5575 19.284 8.424 18.3075 8.424 17.202C8.424 15.6285 8.937 14.289 9.9645 13.182C9.4845 12 9.5295 10.6725 10.101 9.204C10.479 9.0855 11.0385 9.174 11.7795 9.4665C12.5205 9.759 13.0635 10.0095 13.4085 10.2165C13.7535 10.4265 14.0295 10.602 14.238 10.7445C15.4575 10.4051 16.7177 10.2345 17.9835 10.2375C19.272 10.2375 20.52 10.407 21.7305 10.7445L22.4715 10.2765C23.0415 9.93428 23.6427 9.64699 24.267 9.4185C24.957 9.1575 25.482 9.087 25.848 9.204C26.433 10.674 26.484 12 26.0025 13.1835C27.03 14.289 27.5445 15.6285 27.5445 17.2035C27.5445 18.309 27.411 19.2885 27.144 20.139C26.8785 20.991 26.5335 21.6735 26.1105 22.188C25.6701 22.7158 25.1343 23.156 24.531 23.4855C23.901 23.8365 23.289 24.09 22.6965 24.246C22.0399 24.4141 21.3715 24.5319 20.697 24.5985C21.372 25.1835 21.711 26.106 21.711 27.3675V32.0325C21.711 32.253 21.7425 32.4315 21.8085 32.568C21.8388 32.6338 21.8821 32.6928 21.9357 32.7415C21.9893 32.7902 22.0521 32.8276 22.1205 32.8515C22.2645 32.9025 22.3905 32.9355 22.5015 32.9475C22.6125 32.9625 22.7715 32.967 22.9785 32.967H27.3495C28.8975 32.967 30.2205 32.418 31.32 31.3185C32.418 30.2205 32.9685 28.896 32.9685 27.348V8.619C32.9685 7.071 32.418 5.748 31.3185 4.6485H31.32Z" fill="black"/>
</svg>
