<svg width="36" height="36" viewBox="0 0 36 36" fill="none" xmlns="http://www.w3.org/2000/svg">
<path d="M30.9375 3.9375H5.0625C4.44023 3.9375 3.9375 4.44023 3.9375 5.0625V30.9375C3.9375 31.5598 4.44023 32.0625 5.0625 32.0625H30.9375C31.5598 32.0625 32.0625 31.5598 32.0625 30.9375V5.0625C32.0625 4.44023 31.5598 3.9375 30.9375 3.9375ZM25.5691 14.1223C25.5797 14.2875 25.5797 14.4598 25.5797 14.6285C25.5797 19.7895 21.6492 25.7344 14.4668 25.7344C12.252 25.7344 10.1988 25.091 8.46914 23.9836C8.78555 24.0188 9.08789 24.0328 9.41133 24.0328C11.2395 24.0328 12.9199 23.4141 14.2594 22.3664C12.5438 22.3313 11.1023 21.2063 10.6102 19.6594C11.2113 19.7473 11.7527 19.7473 12.3715 19.5891C11.4881 19.4096 10.6941 18.9298 10.1244 18.2313C9.55462 17.5327 9.24429 16.6585 9.24609 15.757V15.7078C9.76289 15.9996 10.3711 16.1789 11.0074 16.2035C10.4725 15.847 10.0338 15.364 9.73023 14.7974C9.42667 14.2307 9.26762 13.5979 9.26719 12.9551C9.26719 12.2273 9.45703 11.5629 9.79805 10.9863C10.7786 12.1934 12.0021 13.1806 13.3891 13.8838C14.7762 14.587 16.2957 14.9905 17.8488 15.068C17.2969 12.4137 19.2797 10.2656 21.6633 10.2656C22.7883 10.2656 23.8008 10.7367 24.5145 11.4961C25.3969 11.3309 26.2406 11.0004 26.993 10.5574C26.7012 11.4609 26.0895 12.2238 25.2773 12.7055C26.0648 12.6211 26.8242 12.4031 27.5273 12.0973C26.9965 12.8777 26.332 13.5703 25.5691 14.1223V14.1223Z" fill="black"/>
</svg>
