<svg width="698" height="632" viewBox="0 0 698 632" fill="none" xmlns="http://www.w3.org/2000/svg">
<g clip-path="url(#clip0)">
<path d="M305.054 522.252H13.8291C10.1626 522.248 6.64757 520.79 4.05501 518.197C1.46244 515.604 0.00412632 512.089 0 508.423V113.073C0.00412632 109.407 1.46244 105.892 4.05501 103.299C6.64757 100.707 10.1627 99.2484 13.8291 99.2442H305.054C308.72 99.2484 312.235 100.707 314.828 103.299C317.42 105.892 318.879 109.407 318.883 113.073V508.423C318.879 512.089 317.42 515.604 314.828 518.197C312.235 520.79 308.72 522.248 305.054 522.252V522.252Z" fill="white"/>
<path d="M146.313 202.135C146.313 213.553 142.701 224.679 135.994 233.919C129.286 243.159 119.828 250.041 108.972 253.579C108.647 253.682 108.323 253.786 107.993 253.884C106.587 254.317 105.161 254.686 103.71 255C101.085 255.57 98.4203 255.94 95.7392 256.107C94.574 256.185 93.4021 256.225 92.2234 256.225C86.1339 256.231 80.0873 255.207 74.3394 253.196C74.1723 253.137 74.0052 253.078 73.8429 253.019C64.53 249.655 56.319 243.8 50.1045 236.092C43.89 228.383 39.9104 219.117 38.5995 209.302C37.2886 199.488 38.6966 189.502 42.67 180.432C46.6435 171.363 53.0299 163.558 61.1335 157.868C69.2371 152.179 78.7469 148.822 88.6267 148.165C98.5065 147.507 108.377 149.574 117.163 154.14C125.949 158.706 133.313 165.596 138.453 174.059C143.593 182.522 146.312 192.233 146.313 202.135V202.135Z" fill="white"/>
<path d="M90.9275 237.972C105.462 237.972 117.244 226.189 117.244 211.655C117.244 197.121 105.462 185.338 90.9275 185.338C76.3932 185.338 64.6108 197.121 64.6108 211.655C64.6108 226.189 76.3932 237.972 90.9275 237.972Z" fill="#0FBCF9"/>
<path d="M92.4638 225.834L92.4912 224.851C90.6616 224.8 89.0487 224.685 87.8366 223.8C87.493 223.534 87.2106 223.198 87.0085 222.814C86.8064 222.43 86.6895 222.006 86.6656 221.573C86.6443 221.308 86.6844 221.042 86.7827 220.795C86.8811 220.548 87.035 220.327 87.2325 220.15C87.6904 219.872 88.2147 219.723 88.7502 219.718C89.2857 219.714 89.8125 219.853 90.2753 220.123L91.089 220.496L89.5286 209.093L88.5543 209.226L89.8816 218.926C89.3382 218.725 88.7531 218.662 88.1796 218.745C87.606 218.827 87.0622 219.052 86.5977 219.399C86.2853 219.671 86.0402 220.013 85.8815 220.396C85.7228 220.779 85.6548 221.194 85.6829 221.608C85.7117 222.19 85.8674 222.759 86.1392 223.275C86.411 223.791 86.7924 224.241 87.2566 224.594C88.8138 225.732 90.8376 225.789 92.4638 225.834Z" fill="#2F2E41"/>
<path d="M83.7358 210.063H78.4392V211.046H83.7358V210.063Z" fill="#2F2E41"/>
<path d="M100.454 210.063H95.1578V211.046H100.454V210.063Z" fill="#2F2E41"/>
<path d="M98.4043 248.446C98.4741 248.122 98.5104 247.793 98.5126 247.462C98.5106 246.224 98.0178 245.037 97.1422 244.161C96.2666 243.285 95.0795 242.793 93.8412 242.791H86.9571C85.7185 242.792 84.5309 243.284 83.6551 244.16C82.7793 245.036 82.2868 246.224 82.2857 247.462C82.2854 247.795 82.3217 248.126 82.3937 248.45C79.795 249.269 77.3385 250.485 75.1115 252.055C74.6786 252.355 74.2509 252.679 73.8428 253.019C74.0051 253.078 74.1722 253.137 74.3393 253.196C80.0872 255.206 86.1339 256.231 92.2234 256.225C93.4035 256.225 94.5754 256.185 95.7391 256.107C98.4202 255.94 101.085 255.57 103.71 255C105.161 254.685 106.587 254.317 107.993 253.884C105.211 251.423 101.945 249.57 98.4043 248.446V248.446Z" fill="#2F2E41"/>
<path d="M97.5193 255.482C96.8812 255.529 96.267 255.745 95.7393 256.107C98.4203 255.94 101.085 255.57 103.71 255L97.5193 255.482Z" fill="#2F2E41"/>
<path d="M114.795 205.403L69.0776 188.679C68.5877 188.499 68.1891 188.133 67.9694 187.66C67.7497 187.187 67.727 186.645 67.9062 186.156L68.0609 185.424C71.6313 175.665 83.4656 169.522 93.2254 173.093L107.294 178.239C117.054 181.81 121.295 193.367 117.725 203.126L117.318 204.232C117.139 204.722 116.772 205.12 116.299 205.34C115.826 205.56 115.285 205.583 114.795 205.403V205.403Z" fill="#2F2E41"/>
<path d="M117.258 206.331C53.5365 208.683 47.9686 200.676 67.384 188.086L71.5029 180.507L118.708 197.717L117.258 206.331Z" fill="#2F2E41"/>
<path d="M104.763 177.039C105.115 175.869 103.608 174.381 101.397 173.717C99.1868 173.052 97.1095 173.462 96.7577 174.633C96.4059 175.803 97.9128 177.29 100.123 177.955C102.334 178.619 104.411 178.209 104.763 177.039Z" fill="#2F2E41"/>
<path d="M92.2235 257.7C85.9678 257.707 79.7561 256.654 73.8517 254.588L73.3385 254.405C60.9706 249.935 50.5889 241.224 44.0396 229.82C37.4903 218.416 35.1979 205.059 37.5703 192.124C39.9426 179.189 46.8257 167.515 56.9957 159.177C67.1656 150.84 79.963 146.38 93.112 146.59C106.261 146.8 118.909 151.668 128.807 160.326C138.706 168.984 145.212 180.873 147.169 193.877C149.127 206.881 146.408 220.158 139.498 231.347C132.587 242.535 121.932 250.91 109.428 254.982C109.078 255.093 108.749 255.198 108.415 255.298C107.018 255.727 105.537 256.113 104.023 256.442C101.324 257.027 98.5856 257.407 95.8299 257.579C94.646 257.659 93.4296 257.7 92.2235 257.7ZM92.2235 149.521C79.8425 149.522 67.8585 153.89 58.3794 161.854C48.9003 169.819 42.5331 180.871 40.3977 193.066C38.2622 205.262 40.4953 217.82 46.7042 228.531C52.9131 239.243 62.7001 247.423 74.3439 251.631L74.831 251.805C80.4208 253.761 86.3014 254.756 92.2235 254.749C93.3636 254.749 94.513 254.711 95.6398 254.635C98.2493 254.472 100.843 254.112 103.398 253.558C104.83 253.248 106.23 252.883 107.559 252.474C107.888 252.376 108.201 252.276 108.513 252.177C120.423 248.298 130.558 240.298 137.098 229.615C143.637 218.932 146.151 206.266 144.188 193.895C142.225 181.525 135.913 170.26 126.388 162.126C116.863 153.992 104.749 149.522 92.2235 149.521V149.521Z" fill="#CCCCCC"/>
<path d="M305.054 522.252H13.8291C10.1626 522.248 6.64757 520.79 4.05501 518.197C1.46244 515.604 0.00412632 512.089 0 508.423V113.073C0.00412632 109.407 1.46244 105.892 4.05501 103.299C6.64757 100.707 10.1627 99.2484 13.8291 99.2442H305.054C308.72 99.2484 312.235 100.707 314.828 103.299C317.42 105.892 318.879 109.407 318.883 113.073V508.423C318.879 512.089 317.42 515.604 314.828 518.197C312.235 520.79 308.72 522.248 305.054 522.252V522.252ZM13.8291 100.871C10.594 100.875 7.49249 102.162 5.20494 104.449C2.91739 106.737 1.63062 109.838 1.62695 113.073V508.423C1.63062 511.658 2.91736 514.759 5.20491 517.047C7.49246 519.335 10.594 520.621 13.8291 520.625H305.054C308.289 520.621 311.39 519.335 313.678 517.047C315.965 514.759 317.252 511.658 317.256 508.423V113.073C317.252 109.838 315.965 106.737 313.678 104.449C311.39 102.162 308.289 100.875 305.054 100.871H13.8291Z" fill="#CCCCCC"/>
<path d="M248.676 201.924H166.27C164.542 201.922 162.886 201.235 161.665 200.012C160.444 198.79 159.758 197.133 159.758 195.405C159.758 193.678 160.444 192.021 161.665 190.798C162.886 189.576 164.542 188.888 166.27 188.886H248.676C249.533 188.885 250.381 189.053 251.173 189.38C251.965 189.707 252.685 190.187 253.291 190.792C253.897 191.398 254.378 192.117 254.706 192.908C255.035 193.7 255.203 194.548 255.203 195.405C255.203 196.262 255.035 197.11 254.706 197.902C254.378 198.693 253.897 199.412 253.291 200.018C252.685 200.623 251.965 201.103 251.173 201.431C250.381 201.758 249.533 201.926 248.676 201.924V201.924Z" fill="#E6E6E6"/>
<path d="M275.568 223.927H166.27C164.542 223.925 162.886 223.237 161.665 222.015C160.444 220.792 159.758 219.135 159.758 217.408C159.758 215.68 160.444 214.023 161.665 212.801C162.886 211.578 164.542 210.891 166.27 210.888H275.568C277.296 210.891 278.952 211.578 280.173 212.801C281.394 214.023 282.079 215.68 282.079 217.408C282.079 219.135 281.394 220.792 280.173 222.015C278.952 223.237 277.296 223.925 275.568 223.927V223.927Z" fill="#E6E6E6"/>
<path d="M248.556 308.316H43.3146C42.4578 308.317 41.6092 308.149 40.8173 307.822C40.0254 307.495 39.3058 307.015 38.6995 306.41C38.0933 305.804 37.6124 305.085 37.2842 304.294C36.9561 303.502 36.7872 302.654 36.7872 301.797C36.7872 300.94 36.9561 300.092 37.2842 299.3C37.6124 298.509 38.0933 297.79 38.6995 297.184C39.3058 296.579 40.0254 296.099 40.8173 295.772C41.6092 295.444 42.4578 295.277 43.3146 295.278H248.556C250.284 295.28 251.94 295.968 253.161 297.19C254.382 298.412 255.067 300.069 255.067 301.797C255.067 303.525 254.382 305.182 253.161 306.404C251.94 307.626 250.284 308.314 248.556 308.316V308.316Z" fill="#E6E6E6"/>
<path d="M275.448 330.319H43.3146C42.4578 330.32 41.6092 330.152 40.8173 329.825C40.0254 329.498 39.3058 329.018 38.6995 328.412C38.0933 327.807 37.6124 327.088 37.2842 326.296C36.9561 325.505 36.7872 324.656 36.7872 323.8C36.7872 322.943 36.9561 322.094 37.2842 321.303C37.6124 320.511 38.0933 319.792 38.6995 319.187C39.3058 318.581 40.0254 318.101 40.8173 317.774C41.6092 317.447 42.4578 317.279 43.3146 317.28H275.448C276.305 317.279 277.154 317.447 277.945 317.774C278.737 318.101 279.457 318.581 280.063 319.187C280.669 319.792 281.15 320.511 281.478 321.303C281.807 322.094 281.975 322.943 281.975 323.8C281.975 324.656 281.807 325.505 281.478 326.296C281.15 327.088 280.669 327.807 280.063 328.412C279.457 329.018 278.737 329.498 277.945 329.825C277.154 330.152 276.305 330.32 275.448 330.319V330.319Z" fill="#E6E6E6"/>
<path d="M248.556 380.889H43.3146C41.5856 380.889 39.9273 380.202 38.7047 378.98C37.4821 377.757 36.7953 376.099 36.7953 374.37C36.7953 372.641 37.4821 370.983 38.7047 369.76C39.9273 368.538 41.5856 367.851 43.3146 367.851H248.556C250.285 367.851 251.943 368.538 253.166 369.76C254.388 370.983 255.075 372.641 255.075 374.37C255.075 376.099 254.388 377.757 253.166 378.98C251.943 380.202 250.285 380.889 248.556 380.889V380.889Z" fill="#E6E6E6"/>
<path d="M275.448 402.892H43.3146C41.5856 402.892 39.9273 402.205 38.7047 400.982C37.4821 399.76 36.7953 398.102 36.7953 396.373C36.7953 394.644 37.4821 392.985 38.7047 391.763C39.9273 390.54 41.5856 389.853 43.3146 389.853H275.448C277.177 389.853 278.835 390.54 280.058 391.763C281.281 392.985 281.967 394.644 281.967 396.373C281.967 398.102 281.281 399.76 280.058 400.982C278.835 402.205 277.177 402.892 275.448 402.892V402.892Z" fill="#E6E6E6"/>
<path d="M248.556 453.462H43.3146C41.5856 453.462 39.9273 452.775 38.7047 451.553C37.4821 450.33 36.7953 448.672 36.7953 446.943C36.7953 445.214 37.4821 443.556 38.7047 442.333C39.9273 441.111 41.5856 440.424 43.3146 440.424H248.556C250.285 440.424 251.943 441.111 253.166 442.333C254.388 443.556 255.075 445.214 255.075 446.943C255.075 448.672 254.388 450.33 253.166 451.553C251.943 452.775 250.285 453.462 248.556 453.462V453.462Z" fill="#E6E6E6"/>
<path d="M275.448 475.465H43.3146C41.5856 475.465 39.9273 474.778 38.7047 473.555C37.4821 472.333 36.7953 470.675 36.7953 468.946C36.7953 467.217 37.4821 465.558 38.7047 464.336C39.9273 463.113 41.5856 462.426 43.3146 462.426H275.448C277.177 462.426 278.835 463.113 280.058 464.336C281.281 465.558 281.967 467.217 281.967 468.946C281.967 470.675 281.281 472.333 280.058 473.555C278.835 474.778 277.177 475.465 275.448 475.465V475.465Z" fill="#E6E6E6"/>
<path d="M684.134 423.008L392.909 423.008C389.243 423.004 385.728 421.546 383.135 418.953C380.543 416.36 379.084 412.845 379.08 409.179L379.08 13.8293C379.084 10.1629 380.542 6.64782 383.135 4.05525C385.727 1.46268 389.242 0.00435786 392.909 0.000228882L684.133 0C687.8 0.00412367 691.315 1.46243 693.908 4.05499C696.5 6.64756 697.958 10.1626 697.963 13.8291L697.963 409.179C697.959 412.845 696.5 416.36 693.908 418.953C691.315 421.545 687.8 423.004 684.134 423.008V423.008Z" fill="white"/>
<path d="M684.134 423.008L392.909 423.008C389.243 423.004 385.728 421.546 383.135 418.953C380.543 416.36 379.084 412.845 379.08 409.179L379.08 13.8293C379.084 10.1629 380.542 6.64782 383.135 4.05525C385.727 1.46268 389.242 0.00435786 392.909 0.000228882L684.133 0C687.8 0.00412367 691.315 1.46243 693.908 4.05499C696.5 6.64756 697.958 10.1626 697.963 13.8291L697.963 409.179C697.959 412.845 696.5 416.36 693.908 418.953C691.315 421.545 687.8 423.004 684.134 423.008V423.008ZM392.909 1.62718C389.674 1.63085 386.572 2.91761 384.285 5.20517C381.997 7.49272 380.71 10.5943 380.707 13.8293L380.707 409.179C380.711 412.414 381.998 415.515 384.285 417.803C386.573 420.091 389.674 421.377 392.909 421.381L684.134 421.381C687.369 421.377 690.47 420.09 692.758 417.803C695.045 415.515 696.332 412.414 696.336 409.179L696.336 13.8291C696.332 10.594 695.045 7.49248 692.758 5.20493C690.47 2.91737 687.369 1.63062 684.133 1.62695L392.909 1.62718Z" fill="#CCCCCC"/>
<path d="M525.53 102.352C525.53 113.05 522.357 123.508 516.414 132.403C510.47 141.298 502.023 148.23 492.139 152.324C482.256 156.418 471.38 157.489 460.888 155.402C450.395 153.315 440.757 148.164 433.193 140.599C425.628 133.035 420.477 123.397 418.39 112.904C416.303 102.412 417.374 91.5364 421.468 81.6528C425.562 71.7692 432.494 63.3216 441.389 57.3781C450.284 51.4347 460.742 48.2624 471.44 48.2624C485.784 48.2669 499.539 53.967 509.682 64.1098C519.825 74.2526 525.525 88.0079 525.53 102.352V102.352Z" fill="white"/>
<path d="M496.439 111.607C495.849 146.2 444.392 146.195 443.806 111.606C444.397 77.0141 495.853 77.0194 496.439 111.607Z" fill="#0FBCF9"/>
<path d="M469.078 122.345L469.051 121.361C475.829 122.266 477.289 113.866 470.453 117.006L472.013 105.603L472.988 105.736L471.66 115.436C478.858 114.365 476.195 123.327 469.078 122.345Z" fill="#2F2E41"/>
<path d="M483.103 106.573H477.806V107.556H483.103V106.573Z" fill="#2F2E41"/>
<path d="M466.384 106.573H461.088V107.556H466.384V106.573Z" fill="#2F2E41"/>
<path d="M478.654 148.402C479.686 141.434 471.529 142.811 467.211 142.742C466.515 142.744 465.828 142.902 465.201 143.203C464.573 143.504 464.021 143.942 463.583 144.483C463.146 145.025 462.835 145.657 462.674 146.335C462.512 147.012 462.503 147.716 462.648 148.397C459.306 149.43 456.212 151.137 453.556 153.413C464.749 157.316 476.912 157.45 488.188 153.796C485.439 151.327 482.186 149.487 478.654 148.402Z" fill="#2F2E41"/>
<path d="M457.75 99.1602C462.627 96.3415 468.542 98.5039 473.579 99.6862C483.138 102.624 496.541 98.9451 497.704 87.559C498.913 76.9698 484.428 71.068 479.798 81.6074L481.146 81.4312C466.13 59.1157 440.011 59.9621 440.183 90.6419C440.127 91.5897 441.602 91.5865 441.657 90.6413C441.105 72.5622 453.07 60.2038 469.983 71.8223C473.761 74.7794 477.091 78.2666 479.872 82.1758C481.633 84.1498 482.016 75.6484 490.447 77.8751C499.725 81.4696 496.698 94.7553 488.405 97.6718C478.158 102.907 467.06 92.7568 457.005 97.8858C456.844 97.988 456.728 98.1491 456.682 98.3351C456.637 98.521 456.666 98.7174 456.762 98.8827C456.859 99.048 457.016 99.1693 457.2 99.221C457.384 99.2728 457.581 99.251 457.75 99.1602V99.1602Z" fill="#2F2E41"/>
<path d="M471.44 157.917C457.472 157.905 444.021 152.628 433.771 143.139C423.521 133.65 417.225 120.646 416.137 106.72C415.05 92.7943 419.252 78.9705 427.905 68.0055C436.559 57.0405 449.027 49.7403 462.824 47.5608C476.621 45.3813 490.733 48.4827 502.345 56.2465C513.957 64.0103 522.215 75.8658 525.473 89.4486C528.732 103.031 526.75 117.343 519.924 129.53C513.098 141.717 501.929 150.882 488.644 155.199C483.089 157.006 477.282 157.923 471.44 157.917ZM471.44 49.7375C461.032 49.7361 450.857 52.8212 442.202 58.6028C433.547 64.3845 426.801 72.6028 422.818 82.2185C418.834 91.8342 417.791 102.415 419.821 112.624C421.852 122.832 426.863 132.209 434.223 139.569C441.583 146.929 450.96 151.94 461.168 153.971C471.377 156.001 481.958 154.958 491.574 150.974C501.189 146.991 509.408 140.245 515.189 131.59C520.971 122.935 524.056 112.76 524.054 102.352C524.039 88.4026 518.49 75.029 508.627 65.1653C498.763 55.3016 485.389 49.7533 471.44 49.7375V49.7375Z" fill="#CCCCCC"/>
<path d="M627.756 102.68L545.349 102.68C543.62 102.68 541.962 101.994 540.74 100.771C539.517 99.5483 538.83 97.8901 538.83 96.161C538.83 94.432 539.517 92.7738 540.74 91.5512C541.962 90.3286 543.62 89.6418 545.349 89.6418L627.756 89.6417C629.485 89.6417 631.143 90.3286 632.366 91.5512C633.588 92.7738 634.275 94.432 634.275 96.161C634.275 97.89 633.588 99.5482 632.366 100.771C631.143 101.993 629.485 102.68 627.756 102.68V102.68Z" fill="#E6E6E6"/>
<path d="M654.648 124.683L545.349 124.683C544.493 124.684 543.644 124.516 542.852 124.189C542.06 123.862 541.341 123.382 540.734 122.776C540.128 122.171 539.647 121.452 539.319 120.66C538.991 119.869 538.822 119.02 538.822 118.164C538.822 117.307 538.991 116.458 539.319 115.667C539.647 114.875 540.128 114.156 540.734 113.551C541.341 112.945 542.06 112.465 542.852 112.138C543.644 111.811 544.493 111.643 545.349 111.644L654.648 111.644C656.377 111.644 658.035 112.331 659.258 113.554C660.48 114.776 661.167 116.435 661.167 118.164C661.167 119.893 660.48 121.551 659.258 122.773C658.035 123.996 656.377 124.683 654.648 124.683Z" fill="#E6E6E6"/>
<path d="M627.636 209.072L422.395 209.072C420.667 209.07 419.011 208.382 417.79 207.16C416.569 205.938 415.883 204.281 415.883 202.553C415.883 200.825 416.569 199.168 417.79 197.946C419.011 196.724 420.667 196.036 422.395 196.034L627.636 196.033C629.365 196.033 631.023 196.72 632.246 197.943C633.468 199.165 634.155 200.824 634.155 202.553C634.155 204.282 633.468 205.94 632.246 207.163C631.023 208.385 629.365 209.072 627.636 209.072V209.072Z" fill="#E6E6E6"/>
<path d="M654.528 231.075L422.395 231.075C421.538 231.076 420.689 230.908 419.897 230.581C419.105 230.254 418.386 229.774 417.779 229.168C417.173 228.563 416.692 227.844 416.364 227.052C416.036 226.261 415.867 225.412 415.867 224.555C415.867 223.699 416.036 222.85 416.364 222.059C416.692 221.267 417.173 220.548 417.779 219.943C418.386 219.337 419.105 218.857 419.897 218.53C420.689 218.203 421.538 218.035 422.395 218.036L654.528 218.036C656.257 218.036 657.915 218.723 659.138 219.945C660.361 221.168 661.047 222.826 661.047 224.555C661.047 226.284 660.361 227.943 659.138 229.165C657.915 230.388 656.257 231.075 654.528 231.075V231.075Z" fill="#E6E6E6"/>
<path d="M627.636 281.645L422.395 281.645C420.667 281.643 419.011 280.955 417.79 279.733C416.569 278.511 415.883 276.854 415.883 275.126C415.883 273.398 416.569 271.741 417.79 270.519C419.011 269.297 420.667 268.609 422.395 268.607L627.636 268.607C629.365 268.607 631.023 269.293 632.246 270.516C633.469 271.739 634.155 273.397 634.155 275.126C634.155 276.855 633.469 278.513 632.246 279.736C631.023 280.958 629.365 281.645 627.636 281.645Z" fill="#E6E6E6"/>
<path d="M654.528 303.648L422.395 303.648C421.538 303.649 420.689 303.481 419.897 303.154C419.105 302.827 418.386 302.347 417.78 301.741C417.173 301.136 416.692 300.417 416.364 299.625C416.036 298.834 415.867 297.985 415.867 297.129C415.867 296.272 416.036 295.423 416.364 294.632C416.692 293.84 417.173 293.121 417.78 292.516C418.386 291.91 419.105 291.43 419.897 291.103C420.689 290.776 421.538 290.608 422.395 290.609L654.528 290.609C656.257 290.609 657.915 291.296 659.138 292.519C660.361 293.741 661.047 295.399 661.047 297.128C661.047 298.857 660.361 300.516 659.138 301.738C657.915 302.961 656.257 303.648 654.528 303.648V303.648Z" fill="#E6E6E6"/>
<path d="M627.636 354.218L422.395 354.218C420.666 354.218 419.007 353.531 417.785 352.309C416.562 351.086 415.875 349.428 415.875 347.699C415.875 345.97 416.562 344.312 417.785 343.089C419.007 341.867 420.666 341.18 422.395 341.18L627.636 341.18C629.365 341.18 631.023 341.866 632.246 343.089C633.469 344.312 634.155 345.97 634.155 347.699C634.155 349.428 633.469 351.086 632.246 352.309C631.023 353.531 629.365 354.218 627.636 354.218V354.218Z" fill="#E6E6E6"/>
<path d="M654.528 376.221L422.395 376.221C420.666 376.221 419.007 375.534 417.785 374.311C416.562 373.089 415.875 371.431 415.875 369.702C415.875 367.973 416.562 366.314 417.785 365.092C419.007 363.869 420.666 363.182 422.395 363.182L654.528 363.182C656.257 363.182 657.915 363.869 659.138 365.092C660.361 366.314 661.047 367.972 661.047 369.701C661.047 371.43 660.361 373.089 659.138 374.311C657.915 375.534 656.257 376.221 654.528 376.221V376.221Z" fill="#E6E6E6"/>
<path d="M508.423 593.024H217.198C213.532 593.02 210.017 591.562 207.424 588.969C204.832 586.377 203.373 582.862 203.369 579.195V183.846C203.373 180.179 204.832 176.664 207.424 174.072C210.017 171.479 213.532 170.021 217.198 170.017H508.423C512.089 170.021 515.604 171.479 518.197 174.072C520.789 176.664 522.248 180.179 522.252 183.846V579.195C522.248 582.862 520.789 586.377 518.197 588.969C515.604 591.562 512.089 593.02 508.423 593.024V593.024Z" fill="white"/>
<path d="M241.487 271.795C241.478 278.915 242.878 285.965 245.607 292.541C248.337 299.116 252.341 305.086 257.389 310.106C257.812 310.524 258.245 310.942 258.682 311.35C261.319 313.813 264.195 316.005 267.268 317.895C267.858 318.258 268.448 318.608 269.053 318.947C272.161 320.699 275.436 322.136 278.828 323.24C279.414 323.431 280.009 323.613 280.604 323.781C291.388 326.874 302.867 326.551 313.461 322.856C313.667 322.782 313.874 322.709 314.075 322.635C323.375 319.251 331.569 313.382 337.764 305.665C343.959 297.948 347.919 288.679 349.212 278.868C350.505 269.056 349.082 259.078 345.097 250.02C341.113 240.961 334.719 233.169 326.614 227.492C318.508 221.815 309 218.47 299.125 217.822C289.25 217.174 279.387 219.247 270.608 223.815C261.83 228.384 254.473 235.273 249.338 243.733C244.203 252.193 241.488 261.899 241.487 271.795V271.795Z" fill="white"/>
<path d="M284.154 298.307C284.18 302.498 282.636 306.546 279.825 309.654C277.044 312.706 272.903 314.73 268.725 313.893C264.878 313.122 261.751 309.759 262.141 305.691C262.206 304.81 262.462 303.954 262.892 303.182C263.321 302.41 263.914 301.741 264.629 301.221C265.344 300.702 266.163 300.345 267.03 300.174C267.897 300.004 268.79 300.025 269.648 300.236C273.303 301.184 274.759 306.451 271.714 308.924C270.983 309.517 269.933 308.479 270.671 307.881C271.126 307.465 271.469 306.941 271.669 306.358C271.869 305.776 271.92 305.152 271.817 304.544C271.713 303.936 271.459 303.365 271.077 302.881C270.696 302.397 270.199 302.016 269.632 301.774C268.963 301.56 268.254 301.501 267.559 301.601C266.864 301.701 266.201 301.958 265.62 302.353C265.039 302.747 264.556 303.269 264.206 303.878C263.856 304.487 263.65 305.167 263.602 305.868C263.36 309.297 265.988 311.88 269.209 312.488C272.695 313.146 276.15 311.362 278.512 308.9C281.219 306.041 282.712 302.244 282.679 298.307C282.685 298.116 282.766 297.934 282.903 297.801C283.041 297.668 283.225 297.594 283.416 297.594C283.608 297.594 283.792 297.668 283.929 297.801C284.067 297.934 284.148 298.116 284.154 298.307V298.307Z" fill="#2F2E41"/>
<path d="M298.558 307.685C313.093 307.685 324.875 295.903 324.875 281.368C324.875 266.834 313.093 255.052 298.558 255.052C284.024 255.052 272.242 266.834 272.242 281.368C272.242 295.903 284.024 307.685 298.558 307.685Z" fill="#0FBCF9"/>
<path d="M297.212 292.597L297.185 291.614C299.014 291.563 300.627 291.448 301.839 290.563C302.183 290.297 302.465 289.961 302.667 289.577C302.869 289.193 302.986 288.769 303.01 288.336C303.032 288.071 302.992 287.805 302.893 287.558C302.795 287.311 302.641 287.09 302.443 286.913C301.985 286.635 301.461 286.486 300.926 286.481C300.39 286.477 299.863 286.616 299.401 286.886L298.587 287.259L300.147 275.856L301.122 275.989L299.794 285.689C300.338 285.488 300.923 285.425 301.496 285.508C302.07 285.59 302.614 285.815 303.078 286.162C303.391 286.434 303.636 286.776 303.794 287.159C303.953 287.542 304.021 287.957 303.993 288.371C303.964 288.953 303.809 289.522 303.537 290.038C303.265 290.554 302.884 291.004 302.419 291.357C300.862 292.495 298.838 292.552 297.212 292.597Z" fill="#2F2E41"/>
<path d="M311.237 276.826H305.94V277.809H311.237V276.826Z" fill="#2F2E41"/>
<path d="M294.518 276.826H289.222V277.809H294.518V276.826Z" fill="#2F2E41"/>
<path d="M280.604 323.781C291.388 326.874 302.867 326.551 313.461 322.856C313.667 322.782 313.874 322.709 314.075 322.635C311.579 320.709 308.755 319.25 305.741 318.327C305.954 317.571 305.95 316.77 305.731 316.016C305.432 315.06 304.833 314.226 304.023 313.638C303.212 313.049 302.233 312.738 301.231 312.751H294.819C293.82 312.738 292.842 313.048 292.033 313.635C291.224 314.223 290.627 315.056 290.33 316.011C290.11 316.767 290.107 317.57 290.32 318.327C287.665 319.14 285.155 320.37 282.885 321.971C282.428 322.291 281.985 322.625 281.558 322.974C281.233 323.235 280.913 323.505 280.604 323.781Z" fill="#2F2E41"/>
<path d="M319.175 278.576C319.175 283.012 321.358 286.69 324.195 287.329C324.484 287.394 324.779 287.427 325.075 287.427C328.325 287.427 330.976 283.459 330.976 278.576C331.049 276.059 330.246 273.595 328.704 271.604C328.224 271.023 327.634 270.543 326.968 270.193C326.384 269.887 325.735 269.727 325.075 269.725C324.17 269.737 323.29 270.032 322.562 270.571C320.561 271.987 319.175 275.041 319.175 278.576Z" fill="#3F3D56"/>
<path d="M266.56 278.576C266.56 282.392 268.173 285.647 270.435 286.891C271.054 287.238 271.751 287.423 272.461 287.427C272.619 287.427 272.776 287.418 272.933 287.398C275.962 287.039 278.362 283.223 278.362 278.576C278.362 274.854 276.822 271.663 274.649 270.36C273.992 269.952 273.235 269.732 272.461 269.725C271.801 269.727 271.152 269.887 270.568 270.193C269.9 270.545 269.308 271.026 268.827 271.609C267.289 273.6 266.488 276.062 266.56 278.576V278.576Z" fill="#3F3D56"/>
<path d="M270.803 286.043C270.92 286.043 271.035 286.015 271.139 285.961C271.244 285.908 271.334 285.83 271.402 285.735C271.47 285.64 271.515 285.53 271.532 285.414C271.55 285.299 271.539 285.18 271.502 285.069C270.092 280.877 269.668 276.417 270.263 272.034C270.857 267.652 272.454 263.465 274.93 259.8C277.405 256.135 280.693 253.09 284.536 250.902C288.38 248.714 292.676 247.442 297.091 247.184C301.506 246.927 305.922 247.691 309.994 249.417C314.066 251.143 317.685 253.785 320.57 257.137C323.454 260.489 325.528 264.462 326.628 268.745C327.728 273.029 327.825 277.509 326.913 281.836C326.873 282.028 326.911 282.227 327.017 282.39C327.124 282.554 327.292 282.669 327.483 282.709C327.674 282.749 327.873 282.712 328.037 282.606C328.201 282.499 328.316 282.332 328.356 282.141C329.316 277.591 329.214 272.881 328.058 268.377C326.902 263.873 324.722 259.696 321.689 256.171C318.656 252.647 314.851 249.869 310.57 248.054C306.289 246.239 301.647 245.436 297.004 245.707C292.362 245.978 287.845 247.316 283.804 249.616C279.763 251.917 276.307 255.119 273.704 258.972C271.102 262.826 269.423 267.228 268.799 271.836C268.175 276.444 268.621 281.134 270.104 285.541C270.153 285.687 270.247 285.814 270.373 285.904C270.498 285.994 270.649 286.043 270.803 286.043V286.043Z" fill="#3F3D56"/>
<path d="M311.779 264.317C312.215 265.03 312.397 265.87 312.293 266.7C312.19 267.53 311.807 268.299 311.209 268.883C309.78 270.479 307.502 270.58 305.524 270.284C303.304 269.951 300.949 268.911 298.702 269.612C296.787 270.209 295.42 271.947 293.43 272.383C291.665 272.77 289.555 272.258 288.936 270.377C288.639 269.473 290.063 269.085 290.359 269.985C290.759 271.201 292.487 271.177 293.477 270.84C295.064 270.3 296.287 268.986 297.846 268.358C299.705 267.783 301.696 267.788 303.552 268.374C305.316 268.771 307.347 269.36 309.105 268.618C310.405 268.069 311.44 266.339 310.505 265.062C309.943 264.295 311.223 263.559 311.779 264.317V264.317Z" fill="#2F2E41"/>
<path d="M295.577 327.36C290.373 327.365 285.195 326.637 280.195 325.198C279.607 325.033 278.99 324.845 278.37 324.642C274.885 323.507 271.522 322.031 268.33 320.232C267.731 319.897 267.13 319.542 266.494 319.15C263.338 317.209 260.384 314.957 257.675 312.428C257.228 312.011 256.786 311.583 256.353 311.156C247.836 302.664 242.304 291.638 240.589 279.734C238.874 267.83 241.068 255.69 246.841 245.14C252.614 234.589 261.655 226.197 272.606 221.223C283.556 216.25 295.825 214.964 307.569 217.559C319.312 220.153 329.897 226.489 337.733 235.613C345.568 244.738 350.231 256.158 351.021 268.159C351.812 280.16 348.687 292.094 342.115 302.167C335.544 312.24 325.882 319.909 314.58 324.021C314.377 324.095 314.167 324.17 313.957 324.245C308.05 326.314 301.835 327.367 295.577 327.36V327.36ZM295.577 219.181C285.163 219.182 274.984 222.272 266.328 228.061C257.672 233.85 250.929 242.077 246.951 251.701C242.974 261.325 241.942 271.912 243.985 282.123C246.029 292.334 251.056 301.709 258.431 309.061C258.839 309.464 259.262 309.872 259.689 310.271C262.254 312.666 265.052 314.799 268.041 316.638C268.643 317.009 269.21 317.343 269.775 317.66C272.799 319.364 275.984 320.763 279.284 321.837C279.868 322.028 280.445 322.204 281.002 322.36C291.496 325.372 302.665 325.058 312.973 321.464L313.569 321.249C325.194 317.018 334.956 308.826 341.141 298.113C347.326 287.4 349.54 274.85 347.392 262.667C345.245 250.484 338.874 239.448 329.398 231.495C319.922 223.543 307.947 219.183 295.577 219.181L295.577 219.181Z" fill="#CCCCCC"/>
<path d="M508.423 593.024H217.198C213.532 593.02 210.017 591.562 207.424 588.969C204.832 586.377 203.373 582.862 203.369 579.195V183.846C203.373 180.179 204.832 176.664 207.424 174.072C210.017 171.479 213.532 170.021 217.198 170.017H508.423C512.089 170.021 515.604 171.479 518.197 174.072C520.789 176.664 522.248 180.179 522.252 183.846V579.195C522.248 582.862 520.789 586.377 518.197 588.969C515.604 591.562 512.089 593.02 508.423 593.024V593.024ZM217.198 171.644C213.963 171.647 210.862 172.934 208.574 175.222C206.287 177.509 205 180.611 204.996 183.846V579.195C205 582.43 206.287 585.532 208.574 587.819C210.862 590.107 213.963 591.394 217.198 591.397H508.423C511.658 591.394 514.759 590.107 517.047 587.819C519.334 585.532 520.621 582.43 520.625 579.195V183.846C520.621 180.611 519.334 177.509 517.047 175.222C514.759 172.934 511.658 171.647 508.423 171.644H217.198Z" fill="#3F3D56"/>
<path d="M452.045 272.697H369.639C367.91 272.697 366.251 272.01 365.029 270.787C363.806 269.565 363.119 267.907 363.119 266.178C363.119 264.449 363.806 262.79 365.029 261.568C366.251 260.345 367.91 259.658 369.639 259.658H452.045C453.774 259.658 455.432 260.345 456.655 261.568C457.878 262.79 458.564 264.449 458.564 266.178C458.564 267.907 457.878 269.565 456.655 270.787C455.432 272.01 453.774 272.697 452.045 272.697V272.697Z" fill="#0FBCF9"/>
<path d="M478.937 294.7H369.639C367.91 294.7 366.251 294.013 365.029 292.79C363.806 291.567 363.119 289.909 363.119 288.18C363.119 286.451 363.806 284.793 365.029 283.57C366.251 282.348 367.91 281.661 369.639 281.661H478.937C480.666 281.661 482.324 282.348 483.547 283.57C484.77 284.793 485.456 286.451 485.456 288.18C485.456 289.909 484.77 291.567 483.547 292.79C482.324 294.013 480.666 294.7 478.937 294.7V294.7Z" fill="#0FBCF9"/>
<path d="M451.925 379.089H246.684C244.955 379.089 243.296 378.402 242.074 377.179C240.851 375.957 240.164 374.298 240.164 372.569C240.164 370.84 240.851 369.182 242.074 367.96C243.296 366.737 244.955 366.05 246.684 366.05H451.925C453.654 366.05 455.312 366.737 456.535 367.96C457.758 369.182 458.444 370.84 458.444 372.569C458.444 374.298 457.758 375.957 456.535 377.179C455.312 378.402 453.654 379.089 451.925 379.089V379.089Z" fill="#CCCCCC"/>
<path d="M478.817 401.091H246.684C244.955 401.091 243.296 400.404 242.074 399.182C240.851 397.959 240.164 396.301 240.164 394.572C240.164 392.843 240.851 391.185 242.074 389.962C243.296 388.74 244.955 388.053 246.684 388.053H478.817C480.546 388.053 482.204 388.74 483.427 389.962C484.65 391.185 485.337 392.843 485.337 394.572C485.337 396.301 484.65 397.959 483.427 399.182C482.204 400.404 480.546 401.091 478.817 401.091V401.091Z" fill="#CCCCCC"/>
<path d="M451.925 451.662H246.684C244.956 451.66 243.3 450.972 242.079 449.749C240.858 448.527 240.172 446.87 240.172 445.142C240.172 443.415 240.858 441.758 242.079 440.535C243.3 439.313 244.956 438.625 246.684 438.623H451.925C453.654 438.623 455.312 439.31 456.535 440.533C457.758 441.755 458.444 443.413 458.444 445.142C458.444 446.871 457.758 448.53 456.535 449.752C455.312 450.975 453.654 451.662 451.925 451.662V451.662Z" fill="#CCCCCC"/>
<path d="M478.817 473.664H246.684C244.956 473.662 243.3 472.974 242.079 471.752C240.858 470.53 240.172 468.873 240.172 467.145C240.172 465.417 240.858 463.76 242.079 462.538C243.3 461.316 244.956 460.628 246.684 460.626H478.817C480.546 460.626 482.204 461.313 483.427 462.535C484.65 463.758 485.337 465.416 485.337 467.145C485.337 468.874 484.65 470.532 483.427 471.755C482.204 472.977 480.546 473.664 478.817 473.664Z" fill="#CCCCCC"/>
<path d="M451.925 524.235H246.684C244.955 524.235 243.296 523.548 242.074 522.325C240.851 521.103 240.164 519.444 240.164 517.715C240.164 515.986 240.851 514.328 242.074 513.106C243.296 511.883 244.955 511.196 246.684 511.196H451.925C453.654 511.196 455.312 511.883 456.535 513.106C457.758 514.328 458.444 515.986 458.444 517.715C458.444 519.444 457.758 521.103 456.535 522.325C455.312 523.548 453.654 524.235 451.925 524.235V524.235Z" fill="#CCCCCC"/>
<path d="M478.817 546.237H246.684C244.955 546.237 243.296 545.551 242.074 544.328C240.851 543.105 240.164 541.447 240.164 539.718C240.164 537.989 240.851 536.331 242.074 535.108C243.296 533.886 244.955 533.199 246.684 533.199H478.817C480.546 533.199 482.204 533.886 483.427 535.108C484.65 536.331 485.337 537.989 485.337 539.718C485.337 541.447 484.65 543.105 483.427 544.328C482.204 545.551 480.546 546.237 478.817 546.237V546.237Z" fill="#CCCCCC"/>
</g>
<defs>
<clipPath id="clip0">
<rect width="697.963" height="631.463" fill="white"/>
</clipPath>
</defs>
</svg>
