<svg width="21" height="21" viewBox="0 0 21 21" fill="none" xmlns="http://www.w3.org/2000/svg">
<path d="M11 19H1.6C1.44087 19 1.28826 18.9368 1.17574 18.8243C1.06321 18.7117 1 18.5591 1 18.4V1.6C1 1.44087 1.06321 1.28826 1.17574 1.17574C1.28826 1.06321 1.44087 1 1.6 1H18.4C18.5591 1 18.7117 1.06321 18.8243 1.17574C18.9368 1.28826 19 1.44087 19 1.6V11" stroke="#005DBB" stroke-width="1.5" stroke-linecap="round" stroke-linejoin="round"/>
<path d="M17 17V20M14 17H17H14ZM20 17H17H20ZM17 17V14V17Z" stroke="#005DBB" stroke-width="1.5" stroke-linecap="round" stroke-linejoin="round"/>
<path d="M7.898 6.51307C7.80681 6.46089 7.70352 6.43357 7.59846 6.43384C7.4934 6.43411 7.39025 6.46196 7.29933 6.51461C7.20841 6.56726 7.13291 6.64285 7.08038 6.73384C7.02785 6.82483 7.00013 6.92801 7 7.03307V12.9661C6.99996 13.0712 7.02755 13.1745 7.08001 13.2657C7.13247 13.3568 7.20795 13.4325 7.2989 13.4853C7.38985 13.5381 7.49307 13.566 7.59821 13.5663C7.70336 13.5666 7.80674 13.5393 7.898 13.4871L13.088 10.5211C13.1799 10.4686 13.2562 10.3928 13.3093 10.3013C13.3624 10.2098 13.3904 10.1059 13.3904 10.0001C13.3904 9.89428 13.3624 9.79037 13.3093 9.69887C13.2562 9.60737 13.1799 9.53155 13.088 9.47907L7.898 6.51307V6.51307Z" stroke="#005DBB" stroke-width="1.5" stroke-linecap="round" stroke-linejoin="round"/>
</svg>
