<svg width="40" height="40" viewBox="0 0 40 40" fill="none" xmlns="http://www.w3.org/2000/svg">
<path d="M8 6C6.93913 6 5.92172 6.42143 5.17157 7.17157C4.42143 7.92172 4 8.93913 4 10V26C4 27.0609 4.42143 28.0783 5.17157 28.8284C5.92172 29.5786 6.93913 30 8 30H23V28.658C22.8288 28.4461 22.6673 28.2265 22.516 28H8C7.46957 28 6.96086 27.7893 6.58579 27.4142C6.21071 27.0391 6 26.5304 6 26V10C6 9.46957 6.21071 8.96086 6.58579 8.58579C6.96086 8.21071 7.46957 8 8 8H32C32.5304 8 33.0391 8.21071 33.4142 8.58579C33.7893 8.96086 34 9.46957 34 10V14.936C34.728 15.296 35.4 15.756 36 16.292V10C36 8.93913 35.5786 7.92172 34.8284 7.17157C34.0783 6.42143 33.0609 6 32 6H8Z" fill="white"/>
<path d="M37 23C37 24.8565 36.2625 26.637 34.9497 27.9497C33.637 29.2625 31.8565 30 30 30C28.1435 30 26.363 29.2625 25.0503 27.9497C23.7375 26.637 23 24.8565 23 23C23 21.1435 23.7375 19.363 25.0503 18.0503C26.363 16.7375 28.1435 16 30 16C31.8565 16 33.637 16.7375 34.9497 18.0503C36.2625 19.363 37 21.1435 37 23V23Z" fill="white"/>
<path d="M30 31.9999C31.85 31.9999 33.57 31.4399 35 30.4839V35.9999C35 36.1856 34.9483 36.3676 34.8507 36.5256C34.753 36.6836 34.6133 36.8113 34.4472 36.8943C34.2811 36.9774 34.0952 37.0125 33.9102 36.9958C33.7252 36.9792 33.5486 36.9113 33.4 36.7999L30.6 34.6999C30.4269 34.5701 30.2164 34.4999 30 34.4999C29.7836 34.4999 29.5731 34.5701 29.4 34.6999L26.6 36.7999C26.4514 36.9113 26.2748 36.9792 26.0898 36.9958C25.9048 37.0125 25.7189 36.9774 25.5528 36.8943C25.3867 36.8113 25.247 36.6836 25.1493 36.5256C25.0517 36.3676 25 36.1856 25 35.9999V30.4839C26.4789 31.4749 28.2197 32.0027 30 31.9999Z" fill="white"/>
<path d="M10 13C10 12.7348 10.1054 12.4804 10.2929 12.2929C10.4804 12.1054 10.7348 12 11 12H29C29.2652 12 29.5196 12.1054 29.7071 12.2929C29.8946 12.4804 30 12.7348 30 13C30 13.2652 29.8946 13.5196 29.7071 13.7071C29.5196 13.8946 29.2652 14 29 14H11C10.7348 14 10.4804 13.8946 10.2929 13.7071C10.1054 13.5196 10 13.2652 10 13Z" fill="white"/>
<path d="M11 22C10.7348 22 10.4804 22.1054 10.2929 22.2929C10.1054 22.4804 10 22.7348 10 23C10 23.2652 10.1054 23.5196 10.2929 23.7071C10.4804 23.8946 10.7348 24 11 24H19C19.2652 24 19.5196 23.8946 19.7071 23.7071C19.8946 23.5196 20 23.2652 20 23C20 22.7348 19.8946 22.4804 19.7071 22.2929C19.5196 22.1054 19.2652 22 19 22H11Z" fill="white"/>
</svg>
