<svg width="16" height="14" viewBox="0 0 16 14" fill="none" xmlns="http://www.w3.org/2000/svg">
<path d="M1.5 0C1.10218 0 0.720644 0.158035 0.43934 0.43934C0.158035 0.720644 0 1.10218 0 1.5V5.5C0 5.89782 0.158035 6.27936 0.43934 6.56066C0.720644 6.84196 1.10218 7 1.5 7H14.5C14.8978 7 15.2794 6.84196 15.5607 6.56066C15.842 6.27936 16 5.89782 16 5.5V1.5C16 1.10218 15.842 0.720644 15.5607 0.43934C15.2794 0.158035 14.8978 0 14.5 0H1.5ZM1.5 9C1.10218 9 0.720644 9.15804 0.43934 9.43934C0.158035 9.72064 0 10.1022 0 10.5V12.5C0 12.8978 0.158035 13.2794 0.43934 13.5607C0.720644 13.842 1.10218 14 1.5 14H5.5C5.89782 14 6.27936 13.842 6.56066 13.5607C6.84196 13.2794 7 12.8978 7 12.5V10.5C7 10.1022 6.84196 9.72064 6.56066 9.43934C6.27936 9.15804 5.89782 9 5.5 9H1.5ZM10.5 9C10.1022 9 9.72064 9.15804 9.43934 9.43934C9.15804 9.72064 9 10.1022 9 10.5V12.5C9 12.8978 9.15804 13.2794 9.43934 13.5607C9.72064 13.842 10.1022 14 10.5 14H14.5C14.8978 14 15.2794 13.842 15.5607 13.5607C15.842 13.2794 16 12.8978 16 12.5V10.5C16 10.1022 15.842 9.72064 15.5607 9.43934C15.2794 9.15804 14.8978 9 14.5 9H10.5Z" fill="black"/>
</svg>
