<svg width="50" height="46" viewBox="0 0 50 46" fill="none" xmlns="http://www.w3.org/2000/svg">
<path d="M31.8179 45.4684H9.09167V40.9232H31.8179V45.4684ZM47.7263 4.54525L36.9654 18.0787L36.4654 18.6923L23.6706 35.0325C23.2483 35.4548 22.7469 35.7898 22.1952 36.0183C21.6434 36.2469 21.052 36.3645 20.4548 36.3645C19.8576 36.3645 19.2662 36.2469 18.7144 36.0183C18.1627 35.7898 17.6613 35.4548 17.239 35.0325C16.8167 34.6102 16.4817 34.1089 16.2532 33.5571C16.0246 33.0053 15.907 32.414 15.907 31.8167C15.907 31.2195 16.0246 30.6281 16.2532 30.0764C16.4817 29.5246 16.8167 29.0233 17.239 28.601L47.7263 4.54525ZM3.73964 11.8949C0.456908 17.1527 -0.723772 23.4546 0.43297 29.5441H2.2738V27.2715C2.24903 22.7967 3.58881 18.4206 6.11453 14.7266L3.73964 11.8949ZM25 6.11914e-07C21.5245 -0.000769812 18.0872 0.725964 14.9094 2.13345C11.7316 3.54094 8.88362 5.59802 6.5486 8.17236L9.14849 11.2722C12.2336 8.43538 16.2637 6.84763 20.4548 6.81787C24.6684 6.84725 28.7189 8.45059 31.8111 11.3131L39.8789 4.94523C35.5828 1.73459 30.3633 -0.000175911 25 6.11914e-07ZM40.5221 20.9081L39.9925 21.5604L38.3381 23.6739C38.5314 24.8635 38.631 26.0664 38.6358 27.2715V29.5441H49.5671C50.6456 23.8566 49.6941 17.9711 46.8786 12.9131L40.5221 20.9081Z" fill="#005DBB"/>
</svg>
