<svg width="36" height="36" viewBox="0 0 36 36" fill="none" xmlns="http://www.w3.org/2000/svg">
<g clip-path="url(#clip0)">
<path d="M26.4195 23.2742C28.5982 20.3013 29.574 16.6153 29.1517 12.9538C28.7294 9.2923 26.9402 5.92524 24.142 3.52627C21.3438 1.1273 17.7429 -0.126666 14.0599 0.0152487C10.3768 0.157163 6.88316 1.68449 4.27784 4.29167C1.67253 6.89885 0.147704 10.3936 0.00842528 14.0768C-0.130854 17.7599 1.12569 21.3598 3.52666 24.1563C5.92763 26.9528 9.29597 28.7396 12.9578 29.1593C16.6196 29.579 20.3049 28.6005 23.2762 26.4197H23.274C23.3415 26.5097 23.4135 26.5952 23.4945 26.6785L32.157 35.341C32.5789 35.7632 33.1512 36.0005 33.7481 36.0007C34.3449 36.0009 34.9174 35.764 35.3396 35.3421C35.7618 34.9202 35.9991 34.3479 35.9993 33.751C35.9995 33.1542 35.7626 32.5817 35.3407 32.1595L26.6782 23.497C26.5978 23.4155 26.5113 23.3403 26.4195 23.272V23.2742ZM27 14.6252C27 16.2503 26.6799 17.8595 26.058 19.3609C25.4361 20.8623 24.5246 22.2265 23.3754 23.3757C22.2263 24.5248 20.8621 25.4363 19.3607 26.0582C17.8593 26.6801 16.2501 27.0002 14.625 27.0002C12.9999 27.0002 11.3907 26.6801 9.88928 26.0582C8.38788 25.4363 7.02367 24.5248 5.87454 23.3757C4.72542 22.2265 3.81388 20.8623 3.19198 19.3609C2.57008 17.8595 2.24999 16.2503 2.24999 14.6252C2.24999 11.3432 3.55378 8.19554 5.87455 5.87478C8.19531 3.55402 11.3429 2.25023 14.625 2.25023C17.907 2.25023 21.0547 3.55402 23.3754 5.87478C25.6962 8.19554 27 11.3432 27 14.6252V14.6252Z" fill="black"/>
</g>
<defs>
<clipPath id="clip0">
<rect width="36" height="36" fill="white"/>
</clipPath>
</defs>
</svg>
