<svg width="20" height="20" viewBox="0 0 20 20" fill="none" xmlns="http://www.w3.org/2000/svg">
<path d="M10 11.5C10.8284 11.5 11.5 10.8284 11.5 10C11.5 9.17157 10.8284 8.5 10 8.5C9.17157 8.5 8.5 9.17157 8.5 10C8.5 10.8284 9.17157 11.5 10 11.5Z" fill="white"/>
<path d="M18.32 7.37H17.23C17.09 7.37 16.99 7.26 16.93 7.11C16.8943 7.05491 16.8753 6.99066 16.8753 6.925C16.8753 6.85934 16.8943 6.79509 16.93 6.74L17.74 6C17.8987 5.8473 18.0249 5.66401 18.1108 5.4612C18.1968 5.25839 18.2407 5.04027 18.24 4.82C18.2398 4.59839 18.1955 4.37905 18.1096 4.17474C18.0238 3.97043 17.8981 3.78526 17.74 3.63L16.4 2.26C16.2448 2.10368 16.0602 1.97962 15.8568 1.89497C15.6534 1.81031 15.4353 1.76672 15.215 1.76672C14.9947 1.76672 14.7766 1.81031 14.5732 1.89497C14.3698 1.97962 14.1852 2.10368 14.03 2.26L13.26 3C13.1988 3.0392 13.1277 3.06004 13.055 3.06004C12.9823 3.06004 12.9112 3.0392 12.85 3C12.7896 2.97748 12.7369 2.93827 12.6979 2.88692C12.659 2.83558 12.6354 2.77422 12.63 2.71V1.68C12.6302 1.24297 12.4601 0.823057 12.1557 0.509395C11.8514 0.195732 11.4368 0.0130069 11 2.59345e-10H9.06C8.61351 -7.81621e-06 8.18516 0.176672 7.86851 0.491449C7.55186 0.806226 7.37264 1.23352 7.37 1.68V2.77C7.37 2.91 7.26 3.01 7.11 3.07C7.05491 3.10573 6.99066 3.12474 6.925 3.12474C6.85934 3.12474 6.79509 3.10573 6.74 3.07L6 2.26C5.68328 1.94517 5.25653 1.76586 4.81 1.76C4.58991 1.76043 4.37212 1.80489 4.16947 1.89076C3.96682 1.97663 3.7834 2.10217 3.63 2.26L2.26 3.6C2.09911 3.75571 1.97118 3.94219 1.88381 4.14834C1.79644 4.35449 1.75142 4.5761 1.75142 4.8C1.75142 5.0239 1.79644 5.24551 1.88381 5.45166C1.97118 5.65781 2.09911 5.84429 2.26 6L3 6.74C3.0392 6.80119 3.06004 6.87233 3.06004 6.945C3.06004 7.01767 3.0392 7.08881 3 7.15C2.97748 7.21038 2.93827 7.26313 2.88692 7.30208C2.83558 7.34103 2.77422 7.36458 2.71 7.37H1.68C1.23444 7.37 0.807122 7.547 0.492061 7.86206C0.177 8.17712 2.59346e-10 8.60444 2.59345e-10 9.05V10.94C-7.81621e-06 11.3865 0.176672 11.8148 0.491449 12.1315C0.806226 12.4481 1.23352 12.6274 1.68 12.63H2.77C2.91 12.63 3.01 12.74 3.07 12.89C3.10573 12.9451 3.12474 13.0093 3.12474 13.075C3.12474 13.1407 3.10573 13.2049 3.07 13.26L2.26 14C1.94517 14.3167 1.76586 14.7435 1.76 15.19C1.75966 15.4117 1.80372 15.6312 1.8896 15.8356C1.97547 16.04 2.10142 16.2251 2.26 16.38L3.6 17.74C3.75522 17.8963 3.93984 18.0204 4.14322 18.105C4.34659 18.1897 4.56471 18.2333 4.785 18.2333C5.00529 18.2333 5.22341 18.1897 5.42678 18.105C5.63016 18.0204 5.81478 17.8963 5.97 17.74L6.74 17C6.80119 16.9608 6.87233 16.94 6.945 16.94C7.01767 16.94 7.08881 16.9608 7.15 17C7.21038 17.0225 7.26313 17.0617 7.30208 17.1131C7.34103 17.1644 7.36458 17.2258 7.37 17.29V18.38C7.38555 18.8151 7.56939 19.2271 7.88278 19.5293C8.19617 19.8315 8.61464 20.0003 9.05 20H10.94C11.3865 20 11.8148 19.8233 12.1315 19.5086C12.4481 19.1938 12.6274 18.7665 12.63 18.32V17.23C12.63 17.09 12.74 16.99 12.89 16.93C12.9451 16.8943 13.0093 16.8753 13.075 16.8753C13.1407 16.8753 13.2049 16.8943 13.26 16.93L14.02 17.7C14.3367 18.0148 14.7635 18.1941 15.21 18.2C15.4301 18.1996 15.6479 18.1551 15.8505 18.0692C16.0532 17.9834 16.2366 17.8578 16.39 17.7L17.73 16.36C17.8863 16.2048 18.0104 16.0202 18.095 15.8168C18.1797 15.6134 18.2233 15.3953 18.2233 15.175C18.2233 14.9547 18.1797 14.7366 18.095 14.5332C18.0104 14.3298 17.8863 14.1452 17.73 13.99L17 13.26C16.9643 13.2049 16.9453 13.1407 16.9453 13.075C16.9453 13.0093 16.9643 12.9451 17 12.89C17.0225 12.8296 17.0617 12.7769 17.1131 12.7379C17.1644 12.699 17.2258 12.6754 17.29 12.67H18.38C18.8134 12.6545 19.2239 12.4721 19.5259 12.1608C19.8278 11.8496 19.9977 11.4336 20 11V9.06C20 8.61351 19.8233 8.18516 19.5086 7.86851C19.1938 7.55186 18.7665 7.37264 18.32 7.37V7.37ZM10 13.5C9.30777 13.5 8.63108 13.2947 8.0555 12.9101C7.47993 12.5256 7.03133 11.9789 6.76642 11.3394C6.50151 10.6999 6.4322 9.99612 6.56725 9.31718C6.7023 8.63825 7.03564 8.01461 7.52513 7.52513C8.01461 7.03564 8.63825 6.7023 9.31718 6.56725C9.99612 6.4322 10.6999 6.50151 11.3394 6.76642C11.9789 7.03133 12.5256 7.47993 12.9101 8.0555C13.2947 8.63108 13.5 9.30777 13.5 10C13.5 10.9283 13.1313 11.8185 12.4749 12.4749C11.8185 13.1313 10.9283 13.5 10 13.5V13.5Z" fill="white"/>
</svg>
