<svg width="50" height="50" viewBox="0 0 50 50" fill="none" xmlns="http://www.w3.org/2000/svg">
<path d="M48.757 17.2553C50.4958 22.5962 50.3849 28.3672 48.4419 33.6374C46.499 38.9076 42.8374 43.3696 38.0478 46.3037C33.2582 49.2378 27.6198 50.473 22.0422 49.81C16.4645 49.1469 11.2729 46.6243 7.30461 42.6491C3.33635 38.6738 0.822879 33.4777 0.169633 27.899C-0.483613 22.3202 0.761455 16.684 3.704 11.8995C6.64654 7.11507 11.115 3.46132 16.3886 1.52766C21.6621 -0.406006 27.4333 -0.506844 32.7712 1.24141L29.4972 4.51228C29.316 4.69348 29.1536 4.88717 29.0036 5.09336C24.7302 4.23081 20.2927 4.76649 16.3473 6.62116C12.4019 8.47584 9.15809 11.551 7.0957 15.3919C5.0333 19.2329 4.2618 23.6355 4.89527 27.9489C5.52875 32.2622 7.53357 36.2571 10.6132 39.3428C13.6929 42.4286 17.6839 44.4412 21.996 45.0832C26.308 45.7251 30.7122 44.9622 34.5572 42.9074C38.4021 40.8526 41.4837 37.6148 43.3461 33.6731C45.2085 29.7313 45.7529 25.2948 44.8988 21.0197C45.1125 20.8681 45.3131 20.6988 45.4986 20.5136L48.7538 17.2584L48.757 17.2553ZM40.3064 21.882C40.9771 25.1721 40.5698 28.5907 39.1448 31.6311C37.7198 34.6715 35.353 37.1718 32.3952 38.7613C29.4375 40.3507 26.0463 40.9448 22.7244 40.4555C19.4025 39.9661 16.3267 38.4193 13.953 36.0444C11.5793 33.6695 10.0341 30.5929 9.54639 27.2707C9.05872 23.9485 9.65454 20.5576 11.2456 17.6007C12.8366 14.6438 15.338 12.2783 18.3792 10.8549C21.4203 9.4314 24.8391 9.02581 28.1289 9.6982V14.5248C25.7975 13.8286 23.3004 13.9299 21.033 14.8127C18.7657 15.6955 16.8575 17.3094 15.6107 19.3988C14.3639 21.4883 13.8496 23.9339 14.1493 26.3485C14.4489 28.7632 15.5455 31.0089 17.2653 32.7301C18.985 34.4514 21.2298 35.5498 23.6442 35.8516C26.0586 36.1533 28.5047 35.6411 30.5952 34.396C32.6857 33.151 34.3011 31.2442 35.1859 28.9776C36.0706 26.711 36.174 24.214 35.4798 21.882H40.3064ZM24.9986 29.6921C25.7173 29.6925 26.4264 29.5275 27.0711 29.2101C27.7158 28.8926 28.2789 28.4311 28.7168 27.8612C29.1547 27.2914 29.4556 26.6285 29.5964 25.9237C29.7371 25.219 29.7139 24.4913 29.5285 23.797L34.4707 18.8516L34.5644 18.7579H42.1871C42.3924 18.7583 42.5957 18.7182 42.7854 18.6399C42.9752 18.5617 43.1477 18.4468 43.293 18.3018L49.5411 12.0537C49.7601 11.8353 49.9093 11.5567 49.9698 11.2533C50.0303 10.9499 49.9994 10.6354 49.8809 10.3497C49.7625 10.0639 49.5618 9.81975 49.3045 9.64815C49.0471 9.47655 48.7445 9.38524 48.4352 9.38579H40.6251V1.57568C40.625 1.26698 40.5335 0.965219 40.362 0.708503C40.1906 0.451786 39.9469 0.251626 39.6618 0.133298C39.3767 0.0149699 39.0629 -0.0162205 38.76 0.0436652C38.4572 0.103551 38.1789 0.251827 37.9603 0.469771L31.7122 6.71786C31.5667 6.86293 31.4512 7.03529 31.3724 7.22506C31.2936 7.41483 31.253 7.61829 31.2529 7.82377V15.4464C31.2208 15.4768 31.1896 15.5081 31.1592 15.5402L26.217 20.4761C25.5715 20.2999 24.8958 20.2639 24.2352 20.3705C23.5746 20.477 22.9445 20.7237 22.3872 21.094C21.8298 21.4643 21.3582 21.9495 21.004 22.5171C20.6497 23.0848 20.421 23.7217 20.3333 24.385C20.2456 25.0483 20.3008 25.7228 20.4954 26.363C20.6899 27.0032 21.0192 27.5944 21.4611 28.0968C21.903 28.5992 22.4473 29.0012 23.0575 29.2758C23.6676 29.5505 24.3295 29.6913 24.9986 29.6889V29.6921Z" fill="#005DBB"/>
</svg>
