<svg width="50" height="50" viewBox="0 0 50 50" fill="none" xmlns="http://www.w3.org/2000/svg">
<path d="M25 0C20.0555 0 15.222 1.46622 11.1108 4.21326C6.99952 6.96029 3.79521 10.8648 1.90302 15.4329C0.010832 20.0011 -0.484251 25.0277 0.480379 29.8773C1.44501 34.7268 3.82603 39.1814 7.32234 42.6777C10.8187 46.174 15.2732 48.555 20.1227 49.5196C24.9723 50.4843 29.9989 49.9892 34.5671 48.097C39.1352 46.2048 43.0397 43.0005 45.7867 38.8892C48.5338 34.778 50 29.9445 50 25C50 18.3696 47.3661 12.0107 42.6777 7.32233C37.9893 2.63392 31.6304 0 25 0ZM41.3281 16.6094L20.7969 37.125L8.67188 25C8.25748 24.5856 8.02468 24.0235 8.02468 23.4375C8.02468 22.8514 8.25748 22.2894 8.67188 21.875C9.08629 21.4606 9.64833 21.2278 10.2344 21.2278C10.8204 21.2278 11.3825 21.4606 11.7969 21.875L20.8281 30.9062L38.2344 13.5156C38.4396 13.3104 38.6832 13.1477 38.9513 13.0366C39.2194 12.9256 39.5067 12.8684 39.7969 12.8684C40.0871 12.8684 40.3744 12.9256 40.6425 13.0366C40.9106 13.1477 41.1542 13.3104 41.3594 13.5156C41.5646 13.7208 41.7273 13.9644 41.8384 14.2325C41.9494 14.5006 42.0066 14.7879 42.0066 15.0781C42.0066 15.3683 41.9494 15.6556 41.8384 15.9237C41.7273 16.1918 41.5646 16.4354 41.3594 16.6406L41.3281 16.6094Z" fill="#005DBB"/>
</svg>
